<svg xmlns="http://www.w3.org/2000/svg" viewBox="0 0 20 20" width="20" height="20">
	<style>
		tspan { white-space:pre }
		.shp0 { fill: #b99403 } 
	</style>
	<g id="bnner+header">
		<g id="main_nav">
			<path id="Shape 6" class="shp0" d="M14.96 2.58C14 3.53 14 5.08 14.96 6.03C15.91 6.99 17.46 6.99 18.42 6.03L19.82 4.63C19.92 5.04 20 5.45 20 5.88C20 8.58 17.81 10.77 15.11 10.77C14.67 10.77 14.25 10.69 13.84 10.58C13.83 10.6 13.82 10.61 13.81 10.63L5.16 19.26C4.2 20.22 2.65 20.22 1.7 19.26C0.74 18.31 0.74 16.76 1.7 15.81L10.35 7.18C10.36 7.16 10.38 7.16 10.4 7.14C10.29 6.74 10.21 6.32 10.21 5.88C10.21 3.19 12.4 1 15.11 1C15.54 1 15.96 1.07 16.36 1.18L14.96 2.58ZM3.48 16.87C3.15 16.87 2.87 17.14 2.87 17.48C2.87 17.82 3.15 18.09 3.48 18.09C3.82 18.09 4.1 17.82 4.1 17.48C4.1 17.14 3.82 16.87 3.48 16.87Z" />
		</g>
	</g>
</svg>