<svg xmlns="http://www.w3.org/2000/svg" viewBox="0 0 52 52" width="52" height="52">
	<style>
		tspan { white-space:pre }
		.shp0 { opacity: 0.502;fill: #f5c506 } 
	</style>
	<g id="footer">
		<g id="logo+_footer">
			<path id="Shape 8 copy 4" class="shp0" d="M0.41 13.5L12.63 13.04L12.55 0.81L17.77 5.8L17.85 18.03L5.63 18.49L0.41 13.5ZM8.33 21.07L20.55 20.61L20.47 8.38L25.69 13.37L25.77 25.6L13.55 26.06L8.33 21.07ZM39.45 50.83L39.37 38.6L51.59 38.14L46.37 33.15L34.15 33.61L34.23 45.84L39.45 50.83ZM31.53 43.26L31.45 31.03L43.67 30.56L38.45 25.58L26.23 26.04L26.31 38.27L31.53 43.26ZM38.32 0.23L38.78 12.45L51.01 12.37L46.02 17.59L33.79 17.67L33.33 5.45L38.32 0.23ZM30.75 8.15L31.21 20.37L43.44 20.29L38.45 25.5L26.22 25.59L25.76 13.37L30.75 8.15ZM0.99 39.27L13.22 39.18L13.68 51.4L18.67 46.19L18.21 33.97L5.98 34.05L0.99 39.27ZM8.56 31.35L20.79 31.27L21.25 43.49L26.24 38.27L25.78 26.05L13.55 26.13L8.56 31.35Z" />
		</g>
	</g>
</svg>