<svg xmlns="http://www.w3.org/2000/svg" viewBox="0 0 85 85" width="85" height="85">
	<style>
		tspan { white-space:pre }
		.shp0 { fill: #f5c506 } 
	</style>
	<g id="bnner+header">
		<g id="logo ">
			<path id="Shape 8 copy 3" class="shp0" d="M0.99 56L14.07 42.5L0.99 29L12.09 29L25.17 42.5L12.09 56L0.99 56ZM17.83 56L30.91 42.5L17.83 29L28.93 29L42.01 42.5L28.93 56L17.83 56ZM84.01 56L70.93 42.5L84.01 29L72.91 29L59.83 42.5L72.91 56L84.01 56ZM67.17 56L54.09 42.5L67.17 29L56.07 29L42.99 42.5L56.07 56L67.17 56ZM29 0.99L42.5 14.07L56 0.99L56 12.09L42.5 25.17L29 12.09L29 0.99ZM29 17.83L42.5 30.91L56 17.83L56 28.93L42.5 42.01L29 28.93L29 17.83ZM29 84.01L42.5 70.93L56 84.01L56 72.91L42.5 59.83L29 72.91L29 84.01ZM29 67.17L42.5 54.09L56 67.17L56 56.07L42.5 42.99L29 56.07L29 67.17Z" />
		</g>
	</g>
</svg>