<svg xmlns="http://www.w3.org/2000/svg" viewBox="0 0 56 56" width="56" height="56">
	<style>
		tspan { white-space:pre }
		.shp0 { fill: #f5c506 } 
	</style>
	<g id="footer">
		<g id="logo+_footer">
			<path id="Shape 8 copy 3" class="shp0" d="M0.99 36.78L9.5 28L0.99 19.22L8.21 19.22L16.72 28L8.21 36.78L0.99 36.78ZM11.95 36.78L20.46 28L11.95 19.22L19.17 19.22L27.68 28L19.17 36.78L11.95 36.78ZM55.01 36.78L46.49 28L55.01 19.22L47.79 19.22L39.28 28L47.79 36.78L55.01 36.78ZM44.05 36.78L35.54 28L44.05 19.22L36.83 19.22L28.32 28L36.83 36.78L44.05 36.78ZM19.22 0.99L28 9.5L36.78 0.99L36.78 8.21L28 16.72L19.22 8.21L19.22 0.99ZM19.22 11.95L28 20.46L36.78 11.95L36.78 19.17L28 27.68L19.22 19.17L19.22 11.95ZM19.22 55.01L28 46.5L36.78 55.01L36.78 47.79L28 39.28L19.22 47.79L19.22 55.01ZM19.22 44.05L28 35.54L36.78 44.05L36.78 36.83L28 28.32L19.22 36.83L19.22 44.05Z" />
		</g>
	</g>
</svg>