<svg xmlns="http://www.w3.org/2000/svg" viewBox="0 0 25 19" width="25" height="19">
	<style>
		tspan { white-space:pre }
		.shp0 { fill: #b99403 } 
	</style>
	<g id="bnner+header">
		<g id="main_nav">
			<path id="Shape 7" class="shp0" d="M24.74 18.3L16.46 10.02L22.58 3.9L24.76 1.73C24.9 1.96 25 2.21 25 2.5L25 17.5C25 17.8 24.89 18.06 24.74 18.3ZM22.05 3.37L19.26 6.16L13.91 11.51L12.98 12.45L3.95 3.41L2.45 1.91L1.76 1.23C1.98 1.1 2.22 1 2.5 1L23.5 1C23.76 1 24 1.09 24.22 1.21L23.46 1.96L22.05 3.37ZM1.91 2.45L9.47 10L1.23 18.24C1.1 18.02 1 17.78 1 17.5L1 2.5C1 2.22 1.1 1.98 1.23 1.76L1.91 2.45L1.91 2.45ZM10 10.53L10.32 10.85L10.43 10.96L11.46 11.99L12.96 13.49L13.02 13.43L13.04 13.44L14.45 12.04L15.93 10.55L24.19 18.81C23.98 18.92 23.75 19 23.5 19L2.5 19C2.22 19 1.98 18.9 1.76 18.77L10 10.53Z" />
		</g>
	</g>
</svg>