<svg xmlns="http://www.w3.org/2000/svg" viewBox="0 0 110 75" width="110" height="75">
	<style>
		tspan { white-space:pre }
		.shp0 { fill: #f5c506 } 
	</style>
	<g id="icon_area">
		<path id="Shape 2" class="shp0" d="M82.75 75L24.84 75C11.68 75 1 64.46 1 51.45C1 40.77 8.25 31.86 18.12 28.98C18.1 28.62 18.03 28.27 18.03 27.91C18.03 18.62 25.66 11.09 35.06 11.09C36.95 11.09 38.73 11.46 40.42 12.02C45.38 5.37 53.3 1 62.31 1C75.27 1 86.06 9.95 88.83 21.91C100.94 24.64 110 35.3 110 48.09C110 62.95 97.8 75 82.75 75ZM62.31 48.09L62.31 27.91L48.69 27.91L48.69 48.09L38.26 48.09L55.5 65.12L72.74 48.09L62.31 48.09Z" />
	</g>
</svg>