<svg xmlns="http://www.w3.org/2000/svg" viewBox="0 0 79 80" width="79" height="80">
	<style>
		tspan { white-space:pre }
		.shp0 { opacity: 0.502;fill: #f5c506 } 
	</style>
	<g id="bnner+header">
		<g id="logo ">
			<path id="Shape 8 copy 4" class="shp0" d="M0.17 21.29L18.95 20.57L18.83 1.78L26.85 9.45L26.97 28.24L8.19 28.95L0.17 21.29ZM12.34 32.92L31.12 32.21L31 13.42L39.02 21.09L39.14 39.88L20.36 40.59L12.34 32.92ZM60.17 78.66L60.04 59.87L78.83 59.15L70.81 51.49L52.03 52.2L52.15 70.99L60.17 78.66ZM48 67.02L47.87 48.23L66.66 47.52L58.64 39.85L39.86 40.56L39.98 59.36L48 67.02ZM58.43 0.89L59.15 19.67L77.94 19.55L70.27 27.57L51.48 27.69L50.77 8.91L58.43 0.89ZM46.8 13.06L47.51 31.85L66.3 31.72L58.63 39.74L39.84 39.86L39.13 21.08L46.8 13.06ZM1.06 60.89L19.85 60.77L20.57 79.55L28.23 71.53L27.52 52.75L8.73 52.87L1.06 60.89ZM12.7 48.72L31.49 48.6L32.2 67.38L39.87 59.36L39.16 40.58L20.37 40.7L12.7 48.72Z" />
		</g>
	</g>
</svg>