<svg xmlns="http://www.w3.org/2000/svg" viewBox="0 0 164 134" width="164" height="134">
	<style>
		tspan { white-space:pre }
		.shp0 { fill-opacity: 0.902;fill: #bc7d00 } 
	</style>
	<g id="section_1">
		<g id="scroll_2">
			<path id="twitter" class="shp0" d="M164 16.31L148.72 31.63C148.72 31.63 148.72 30.24 148.72 34.18C148.72 36.98 148.27 39.65 147.62 42.25C147.26 63.31 140.56 91.25 113.06 113.3C58.96 156.67 1 118.4 1 118.4C46.84 118.4 46.84 103.09 46.84 103.09C36.66 103.09 16.28 82.67 16.28 82.67C21.37 87.77 31.56 82.67 31.56 82.67C6.09 67.36 6.09 52.04 6.09 52.04C11.19 57.15 21.37 52.04 21.37 52.04C-4.09 31.63 11.19 6.1 11.19 6.1C16.28 31.63 82.5 41.83 82.5 41.83L83.34 41.41C82.82 39.08 82.5 34.12 82.5 31.63C82.5 13.3 97.32 1 115.61 1C125.67 1 134.58 5.6 140.65 12.7L143.62 11.21L158.91 1L148.72 21.42L164 16.31Z" />
		</g>
	</g>
</svg>